<svg id="visual" viewBox="0 0 900 450" width="900" height="450" xmlns="http://www.w3.org/2000/svg" xmlns:xlink="http://www.w3.org/1999/xlink" version="1.1"><g stroke-width="1" stroke-linejoin="bevel"><path d="M461 184L317 301L447 283Z" fill="#a5e0c1" stroke="#a5e0c1"></path><path d="M461 184L301 143L317 301Z" fill="#81d8c4" stroke="#81d8c4"></path><path d="M301 143L150 292L317 301Z" fill="#00bbe3" stroke="#00bbe3"></path><path d="M461 184L340 0L301 143Z" fill="#00bbe3" stroke="#00bbe3"></path><path d="M301 143L171 0L177 120Z" fill="#c5e7c4" stroke="#c5e7c4"></path><path d="M148 450L339 450L317 301Z" fill="#e0edcd" stroke="#e0edcd"></path><path d="M317 301L440 450L447 283Z" fill="#00bbe3" stroke="#00bbe3"></path><path d="M633 292L591 142L461 184Z" fill="#c5e7c4" stroke="#c5e7c4"></path><path d="M461 184L473 0L340 0Z" fill="#00bbe3" stroke="#00bbe3"></path><path d="M633 292L461 184L447 283Z" fill="#e0edcd" stroke="#e0edcd"></path><path d="M177 120L150 292L301 143Z" fill="#2d8cf0" stroke="#2d8cf0"></path><path d="M339 450L440 450L317 301Z" fill="#00bbe3" stroke="#00bbe3"></path><path d="M591 142L473 0L461 184Z" fill="#55d0cc" stroke="#55d0cc"></path><path d="M569 450L633 292L447 283Z" fill="#c5e7c4" stroke="#c5e7c4"></path><path d="M340 0L171 0L301 143Z" fill="#00bbe3" stroke="#00bbe3"></path><path d="M177 120L0 182L150 292Z" fill="#81d8c4" stroke="#81d8c4"></path><path d="M440 450L569 450L447 283Z" fill="#2d8cf0" stroke="#2d8cf0"></path><path d="M150 292L148 450L317 301Z" fill="#009ef2" stroke="#009ef2"></path><path d="M722 163L633 0L591 142Z" fill="#00c6d7" stroke="#00c6d7"></path><path d="M591 142L633 0L473 0Z" fill="#81d8c4" stroke="#81d8c4"></path><path d="M633 292L722 163L591 142Z" fill="#009ef2" stroke="#009ef2"></path><path d="M757 282L722 163L633 292Z" fill="#009ef2" stroke="#009ef2"></path><path d="M0 0L0 182L177 120Z" fill="#00bbe3" stroke="#00bbe3"></path><path d="M150 292L0 310L148 450Z" fill="#55d0cc" stroke="#55d0cc"></path><path d="M0 182L0 310L150 292Z" fill="#00aded" stroke="#00aded"></path><path d="M782 450L757 282L633 292Z" fill="#c5e7c4" stroke="#c5e7c4"></path><path d="M171 0L0 0L177 120Z" fill="#55d0cc" stroke="#55d0cc"></path><path d="M0 310L0 450L148 450Z" fill="#00bbe3" stroke="#00bbe3"></path><path d="M900 157L768 0L722 163Z" fill="#f5f5dc" stroke="#f5f5dc"></path><path d="M722 163L768 0L633 0Z" fill="#81d8c4" stroke="#81d8c4"></path><path d="M569 450L782 450L633 292Z" fill="#f5f5dc" stroke="#f5f5dc"></path><path d="M757 282L900 157L722 163Z" fill="#2d8cf0" stroke="#2d8cf0"></path><path d="M900 300L900 157L757 282Z" fill="#e0edcd" stroke="#e0edcd"></path><path d="M782 450L900 300L757 282Z" fill="#a5e0c1" stroke="#a5e0c1"></path><path d="M900 157L900 0L768 0Z" fill="#00aded" stroke="#00aded"></path><path d="M782 450L900 450L900 300Z" fill="#009ef2" stroke="#009ef2"></path></g></svg>